<?xml version="1.0" encoding="utf-8"?>
<!-- Generator: Adobe Illustrator 25.4.1, SVG Export Plug-In . SVG Version: 6.00 Build 0)  -->
<svg version="1.1" id="Layer_1" xmlns="http://www.w3.org/2000/svg" xmlns:xlink="http://www.w3.org/1999/xlink" x="0px" y="0px"
	 viewBox="0 0 1080 1080" style="enable-background:new 0 0 1080 1080;" xml:space="preserve">
<style type="text/css">
	.st0{fill:#FFFFFF;}
</style>
<rect class="st0" width="1080" height="1080"/>
<g>
	<path d="M859.1,837.4c-4.6-22-10.3-43.7-19.4-64.3c-7-15.8-17.4-28.9-31.4-39.3c-13.1-9.7-27.5-16.8-42.3-23.2
		c-23.9-10.2-48.5-18.2-73.3-25.9c-3.8-1.2-6-3-7.2-7.1c-2.5-8.6-6-16.9-8.5-25.5c-4.3-15-14.1-24.3-28.7-29.3
		c-8.6-2.9-8.2-3.2-8.5-12c-0.2-4.4,2.7-6.2,5.3-8.3c22.5-18.5,39.4-40.9,48.5-68.8c1.1-3.3,2.9-3.6,5.9-3.6
		c19.7,0.2,36.6-6.9,48.4-22.6c17-22.6,18.3-47.5,7.1-73.1c-5-11.5-13.9-19.5-26.1-23c-4.3-1.2-4.1-2.9-3.2-6.3
		c5.1-18.2,8.3-36.7,9.4-55.5c0.1-2.3,0.9-3.9,2.8-5.4c12.2-9.5,15.4-22.5,13.6-37c-1.9-14.8-8.2-28.1-16.8-40.1
		c-26.6-37.1-60.6-65.7-102.1-84.9c-35.8-16.5-73.1-26.6-112.9-25.5c-26.5,0.7-51,7.9-71.3,25.6c-18,15.7-27.8,35.4-26.4,59.9
		c1.2,21.8,15.5,41,35.1,47.1c2.3,0.7,4.5,0.9,6.8,0c7.7-2.8,15.6-4.6,23.7-5.9c36.6-5.7,71.9-1.9,105.6,14.3
		c23.6,11.4,45.1,26.4,67.9,39c1.6,0.9,2.2,2.3,2.9,3.8c6.4,13.9,12.8,27.8,19.1,41.7c3.6,7.9,7.2,16,11.1,24.7
		c-3.2-0.6-5.6-1-8-1.5c-2.4-0.4-4.8-1-7.3-1.4c-28.7-4.8-57.4-4.4-86.2-1.8c-11.1,1.1-23.1,1.4-32.1,8c-7.3,5.4-14.3,5.6-22.2,5.1
		c-2.5-0.2-5-0.1-7.5,0.1c-4.8,0.5-9.1,0.2-12.6-4c-2-2.4-5.3-3.3-8.3-4.3c-10.9-3.5-22.1-4.7-33.4-5.5c-20.5-1.4-40.9-1.8-61.4,0.2
		c-12.4,1.2-24.6,3.6-37.6,6.3c1.1-3,1.8-5.3,3-7.7c16-37.2,34.9-72.8,55.3-107.7c2.9-4.8,2-6.8-1.9-10
		c-15.3-12.4-21.8-28.5-18.6-48.2c1-6.3,0.7-7-5.9-7.5c-11.7-1-22.9,1-33.4,6.4c-31.5,16.2-60.6,56.2-51.4,106.2
		c4.2,23.4,11.6,45.7,21.2,67.3c1.4,3.1,1,4.5-2,6c-11.7,5.8-19,15.4-22.8,27.7c-7.1,22.8-3.2,44.2,10.3,63.6
		c10.3,14.7,24.4,24.2,42.6,25.6c7.3,0.5,10,3.3,12.4,10c9.6,27.3,28.2,47.9,50.6,65.4c1.2,0.9,2.8,1.4,3.3,3.4
		c1.8,7.7,0,11.2-7.3,14.3c-1.9,0.8-3.7,1.6-5.5,2.4c-10.5,4.5-17.9,12-21.7,22.8c-3.3,9.4-7,18.7-9.9,28.2c-1.4,4.8-4,7-8.8,8.5
		c-29.1,9.2-58.2,18.5-86,31.6c-31.6,14.8-56.1,35.9-66.6,70.6c-5.2,17-10.2,34.1-13.9,51.5c-0.9,4,0.3,5.9,4.3,6.6
		c3.6,0.7,7.2,1.5,10.7,2.6c4.3,1.4,5.9,0,6.6-4.4c3.4-20.7,7.9-41.1,14.6-61.1c4.9-14.7,13.8-25.9,26.3-34.7
		c13.6-9.5,28.3-16.9,43.4-23.4c20.5-8.9,41.6-15.9,62.7-23c3.6-1.2,5.2-0.7,7.1,3c8.6,17.4,20.1,32.9,33.3,47.1
		c6.3,6.9,12.9,13.4,20.7,18.7c3.9,2.6,6.7,2.5,9.6-1.6c5.6-7.9,11.7-15.3,17.3-23.2c2.7-3.8,4.9-4.6,8.6-1c4.4,4.3,8.7,8.8,14,12
		c1.2,0.7,2.5,1.8,4.1,0.8c1.6-0.9,1.3-2.6,1.3-4c-0.2-4.1-1.7-7.8-3.2-11.5c-3.8-9.5-7.9-18.8-16.9-24.7c-5.9-3.9-9.5-3.1-13.2,2.9
		c-5.2,8.5-10.3,17-15.6,25.5c-3.2,5.1-3.5,5.2-7.9,0.9c-13.9-13.4-25.5-28.5-35.3-45.1c-2.2-3.7-2.8-7.4-1.5-11.4
		c4.3-13.1,8.6-26.2,12.8-39.3c1.9-6.2,6.1-10.1,11.9-12.6c1.3-0.5,2.9-2.1,4.1-0.8c1.1,1.2,0.6,3.2,0.2,4.8
		c-0.3,0.8-1.1,1.6-1.8,2.3c-3.2,3.1-3.4,6.5-1.9,10.5c3,8,8.2,14.5,14,20.5c13.7,14.3,29.6,25.8,45.9,36.8c3.1,2.1,5,4.6,6.5,7.9
		c7.3,16.2,14.9,32.3,24.7,47.2c3,4.6,3,7.7-1,11.3c-10.5,9.6-13.6,21.6-13.4,35.6c0.3,23-0.5,46-0.9,69c-0.1,7-0.3,14-0.4,21
		c-0.1,3.6,1.5,5.9,5.3,5.8c3.5-0.1,5.6-1.9,5.6-5.6c0-1,0-2,0-3c0.3-28,0.5-56,1.1-84c0.2-9.8,1.5-19.6,9.1-27.2
		c16.9-16.7,30-36,39.6-57.7c5-11.3,10.7-21.6,22.3-27.5c3.8-2,7.1-5.1,10.5-7.7c12-9.1,23.8-18.4,32.5-30.8
		c5.2-7.3,11.7-15.1,2.4-24.2c-1.2-1.1-1-3.4-0.1-4.7c1-1.4,2.4,0,3.6,0.4c6.4,2.1,10.9,6.2,12.9,12.8c4.1,13.5,8.4,26.9,12.7,40.4
		c1,3,0.7,5.8-0.8,8.6c-9.4,17.5-21.5,32.9-35.6,46.7c-4.2,4.1-4.8,4.1-8-1c-5.2-8.2-10.1-16.5-15.1-24.7c-4.1-6.7-7.9-7.7-14.4-3.3
		c-12.6,8.6-16.9,21.7-19.7,35.7c-0.4,1.7-0.1,3.4,1.7,4.3c1.7,0.9,3-0.2,4.1-1.1c5.1-4.1,10-8.3,14.9-12.6c2.6-2.3,4.3-2.2,6.4,0.7
		c4.6,6.5,9.5,12.8,14.3,19.2c8.3,11.2,8.5,11.5,19.4,2.3c20.2-17.1,35.8-37.9,47.7-61.5c1.4-2.8,2.5-4,5.9-2.9
		c32.3,10.7,64.8,21.2,94.4,38.5c15,8.8,28.6,19.1,35.4,36c2.9,7.3,5.4,14.7,7.5,22.2c4.2,15,7.3,30.3,10.1,45.7
		c0.7,3.7,2,5.8,6.3,4.2c3.2-1.2,6.7-2.1,10.1-2.6C859.3,844.4,860,841.8,859.1,837.4z M700.4,508.4c2.7-12.3,6.2-24.5,7.8-37.1
		c0.8-6.1,4.5-9.8,9.2-12.9c3-2,6.2-3.8,9.5-5.5c1.8-1,2.8-2.3,2.3-4.4c-0.5-2.2-2.3-2.7-4.3-2.5c-4.3,0.2-7.8,2.6-12.5,4.7
		c1.6-8.4,3-15.7,4.3-23c0.5-3.1,2.5-3.6,5.1-3.3c6.6,0.9,12.1,3.8,15.9,9.3c11.1,16,11.1,33.5,5.2,51c-5.7,17.1-17.4,28-35.7,30.8
		C699.2,516.8,698.7,516.2,700.4,508.4z M509.7,206.4c0.3,2.4,3.1,2,4.9,2.5c13.4,3.8,25.8,9.6,37.3,17.4c0.8,0.5,1.2,1,2.5,2.1
		c-7.9-2.1-14.9-4.2-21.9-5.8c-15.7-3.7-31.5-5.2-47.5-1.6c-11.6,2.6-21.8,8-30.2,16.5c-1.1,1.1-2,2.7-4.2,3.2
		c1.2-10.5,5.6-19.6,11.6-27.8c9.2-12.8,22-20.4,36.9-24.9c21-6.3,41.7-4.1,62.3,1.7c-11.6,1.9-23.2,3.7-34.4,7.4
		c-4.4,1.5-8.8,3-12.9,5.3C512.3,203.4,509.3,203.8,509.7,206.4z M576.1,417.8c17-4.3,34.5-4.5,52.5-4.9c13.1,0.3,26.8,0,40.2,3.2
		c7.1,1.7,8.9,4,8.2,11.3c-1.4,14.6-4.5,28.9-9.9,42.6c-4,10.1-11.3,16.3-21.9,18.3c-16,3-32.1,2.9-48-0.7
		c-12-2.7-19.4-10.3-23.9-21.3c-4.1-10-7.3-20.3-8.9-31.1C562.9,424.9,566,420.4,576.1,417.8z M407.6,415.8
		c11.2-3,22.7-2.4,30.7-2.8c21.9-0.2,40.2,0.3,58.2,3.9c2.4,0.5,4.8,1.3,7.2,2.1c5,1.7,7.5,5.1,7.3,10.5
		c-0.4,14.9-3.9,28.9-10.8,42.1c-4.1,7.8-10.4,13-18.8,15.2c-16.8,4.5-33.9,4.5-50.9,1.2c-9-1.8-15.6-7.2-19.6-15.6
		c-6.8-14.5-9.7-30-11.6-45.7C398.5,420.1,400.9,417.6,407.6,415.8z M378.9,258.3c0.7-0.4,1.5-0.7,2.3-1c6.6-2.5,7.3-2.2,6.7,4.8
		c-0.6,7,1.5,13.1,5.9,18.5c0.8,1,2.8,2.2,0.3,3.4c-13,6.3-20.1,17.4-24.9,30.4c-0.1,0.3-0.6,0.3-1,0.5c-3.6-10.8-2.1-21.5,1-33.3
		c-8.3,4.3-11.6,11.6-17.4,18C356.3,281.9,362.1,266.5,378.9,258.3z M374.3,516c-11.2-1.3-20.1-7-27.1-15.4
		c-12.3-14.8-17.8-31.9-13.9-51.1c2.4-11.5,7.8-21.2,20.3-24.8c3.9-1.1,6.1-1.1,6.8,3.8c0.9,6.8,2.5,13.6,3.9,20.8
		c-3.7-1.3-6.7-2.5-9.9-3.3c-2.3-0.5-4.9-0.4-5.6,2.7c-0.5,2.6,1,3.8,3.3,4.8c3,1.4,6,3,8.6,5c4,3,6.9,6.7,7.9,12.1
		c2.7,13.8,5.9,27.6,9.2,41.3C378.6,515.4,377.7,516.4,374.3,516z M618.2,667.6c-12.4,11.7-26.1,21.7-40.1,31.3
		c-6.4,4.3-11,9.5-14.4,16.6c-6.8,14.2-14.2,28.2-22.8,42.1c-3.5-4.1-5.5-8.6-7.8-12.9c-5.6-10.4-11.1-20.8-16.3-31.4
		c-2.5-5.1-5.9-9-10.5-12.3c-14.9-10.4-29.8-20.7-43-33.2c-2.3-2.2-3.6-4.4-3.5-7.7c0.2-12.7,0.1-25.5,0.1-39.1
		c9.9,6.5,19,12.7,28.2,18.5c12.5,7.8,25.8,13.9,40.3,16.6c18,3.4,35-0.6,51.3-8.3c11.7-5.5,22.1-12.9,32.4-20.5
		c2.6-2.3,5.4-4.3,9-6.8c0,14.3-0.1,27.4,0.1,40.6C621.2,663.9,620.2,665.8,618.2,667.6z M621.7,598.7c-15.2,10-31,18.6-48.4,24.3
		c-22.1,7.2-44.1,7.4-66.2,0.3c-29.3-9.5-55.2-24.6-77.5-45.9c-19.4-18.5-30.4-41.8-36.5-67.5c-5.8-24.6-9.4-49.7-13.2-74.7
		c0-1.9,0-4.1-0.2-6.7c5.7,1.9,7.4,5.9,8.3,10.5c2.2,11.4,5,22.7,8.9,33.7c5.6,15.9,16.4,25.4,33,28.3c17.5,3.1,34.8,2.1,52.1-1.3
		c16.8-3.3,27.1-13.7,33-29.4c4-10.6,7.3-21.4,9-32.6c0.5-3.2,2.2-4.9,5.1-6c5.1-1.8,10.2-1.7,15.2-0.5c3.8,0.9,6.2,2.9,7,7.3
		c2.2,11.6,5.9,22.8,10.5,33.7c6.6,16,18,25.4,35.2,28.1c16.6,2.6,33.1,3.4,49.7,0.4c17.1-3.1,27.7-13.2,33.2-29.4
		c3.7-10.9,5.8-22.2,8.6-33.3c1.1-4.5,3.3-7.8,8.5-9.8c-1.1,8.2-2.2,15.8-3.2,23.5c-3.1,21.9-7,43.7-12.4,65.1
		C672.5,552.1,651.8,578.8,621.7,598.7z"/>
	<path d="M616.1,394.2c0,0.3,0,0.5,0.1,0.7c9.9,0,19.9-0.1,29.9,0.1c4.4,0.1,4.8-1.7,3-5.1c-2.8-5.5-7.3-9.4-12.8-12.1
		c-11.6-5.7-23.9-7-36.5-5.5c-8.9,1.1-17.4,3.5-23,11.4c-3.7,5.3-2.5,7.8,3.9,8.3C592.5,392.9,604.3,393.5,616.1,394.2z"/>
	<path d="M426.3,389.4c-2.2,4.1-1.5,5.3,3.2,5.3c10.1,0,20.3,0,30.4,0c11.5-1.9,23-1.1,34.3-2.4c6.3-0.8,7.6-3.6,3.9-8.9
		c-3.3-4.7-8.2-7.4-13.5-8.9c-16.6-4.7-32.8-3.3-48.2,4.9C432.1,381.7,428.6,385,426.3,389.4z"/>
	<path d="M549.2,809.4c-7.2,0-13.1,5.8-13.1,12.9c0,7.1,5.8,12.8,13.1,12.7c7.5-0.1,13-5.6,13-12.8
		C562.1,815.1,556.4,809.4,549.2,809.4z"/>
	<path d="M549.4,863.4c-7.3,0.2-13.3,6.1-13.2,13c0.1,7.2,5.9,12.7,13.3,12.7c7.3,0,12.8-5.8,12.7-13.2
		C562.1,868.8,556.4,863.2,549.4,863.4z"/>
	<path d="M584.3,526.5c-1.4,0.9-2.7,2-4,3c-23.3,18-63.1,20.6-85.4,1.1c-3.2-2.7-6.9-3.3-9.8,0c-3.2,3.6-0.9,6.7,2.2,9.3
		c14,11.7,30.5,16.2,48.5,16.2c21.1-0.1,40.5-7.1,55.6-20c2.8-2.4,4.4-5.3,1.8-8.6C590.8,524.3,587.5,524.5,584.3,526.5z"/>
	<path d="M517.8,499.3c4.4,4,9.3,6.9,16.5,7c1.9,0.1,4.6-0.7,6.8-2.5c1.1-1,2.1-2.2,1.7-3.9c-0.4-1.9-2-1.9-3.5-1.9
		c-6.5,0.1-12.9-0.8-19-3c-1.2-0.5-2.6-1.2-3.5,0.4C515.8,497,516.7,498.3,517.8,499.3z"/>
	<path d="M596.8,464.8c5.6,8,15.8,8.4,22.1,0.9c7.8-9.3,8.2-26.2,0.8-35.8c-6.8-8.9-17.6-8.3-23.3,1.4c-3,5-4.8,10.5-4.4,16.3
		C591.9,454,593.2,459.7,596.8,464.8z"/>
	<path d="M477.6,466.6c8.4-9.4,8.1-29.3-0.7-38.3c-6.4-6.6-15.2-6.1-20.6,1.3c-3.7,5-5,10.8-5,16.9c0.1,6.7,1.2,13.2,5.6,18.7
		C462.5,472.4,471.8,473,477.6,466.6z"/>
</g>
<g id="Layer_2_00000110449763040659275240000013697533151771097766_">
</g>
</svg>
